PathFileType	4	(X/Y/Z)	69_2_66_p1_0-402_filt_butterworth.trc
DataRate	CameraRate	NumFrames	NumMarkers	Units	OrigDataRate	OrigDataStartFrame	OrigNumFrames
58.0	58.0	6	27	m	58.0	301	402
Frame#	Time	RHip			RKnee			RAnkle			RBigToe			RSmallToe			RHeel			LHip			LKnee			LAnkle			LBigToe			LSmallToe			LHeel			Neck			Head			Nose			RShoulder			RElbow			RWrist			RThumb			RIndex			RPinky			LShoulder			LElbow			LWrist			LThumb			LIndex			LPinky			
		X1	Y1	Z1	X2	Y2	Z2	X3	Y3	Z3	X4	Y4	Z4	X5	Y5	Z5	X6	Y6	Z6	X7	Y7	Z7	X8	Y8	Z8	X9	Y9	Z9	X10	Y10	Z10	X11	Y11	Z11	X12	Y12	Z12	X13	Y13	Z13	X14	Y14	Z14	X15	Y15	Z15	X16	Y16	Z16	X17	Y17	Z17	X18	Y18	Z18	X19	Y19	Z19	X20	Y20	Z20	X21	Y21	Z21	X22	Y22	Z22	X23	Y23	Z23	X24	Y24	Z24	X25	Y25	Z25	X26	Y26	Z26	X27	Y27	Z27	
301	5.189655172413793	0.2917125723053654	0.7939656474784084	0.6567501937878883	0.25989266699270064	0.4433771981162752	0.6174435227821814	0.2072491228519036	0.055671302912450676	0.5918267610669873	0.26563707887084853	0.09365137020002806	0.4041705962398658	0.31037749956608335	0.0772465100169247	0.45544523359023215	0.15789896680099025	-0.0538661519809439	0.6870475162560845	0.05887190033224129	0.7912797450903785	0.6043529378719541	0.04149195864591437	0.4277346533972502	0.572591791454312	0.01916158797165543	0.02639771839426243	0.5572628476801356	0.1312275732092726	0.11075030810567765	0.3535712667494774	0.0798269153463229	0.10745279698368883	0.375634828893829	0.011509724416941487	-0.018304276119780104	0.585999738626312	0.21510205681588918	1.3948979306913827	0.6541967808348773	0.2514979387408922	1.6419586148162524	0.6551581428552345	0.2579205736307683	1.5239580748246893	0.5915331556215244	0.360985210041276	1.2801047376078032	0.6827918377321374	0.42408622200543866	1.0262644718841105	0.6484500294863904	0.3813719578867951	0.8182774795595908	0.5327739083244186	0.2960656566794076	0.7285066920544095	0.4872572092251195	0.31783801392943456	0.6852109797095899	0.49083838748868946	0.35671248190293015	0.6602998511253494	0.5265928648497649	0.0579135571318245	1.3035252946431077	0.5739818157625571	0.03077962646719147	1.076827277387524	0.5026787180043935	0.11879455863006838	0.8877518271751338	0.3785530145824063	0.21594919627977777	0.8322003167643569	0.3595001095680845	0.20426278487488317	0.8042340704394954	0.32125053536146747	0.16313803906701485	0.7704479016982234	0.3112212975126845	
302	5.206896551724138	0.29232534375887775	0.7977135158186586	0.655597000691041	0.2597643416893062	0.44279131518988357	0.6190616199507353	0.2070578756665286	0.05498215851990318	0.592348160511906	0.2651462428481396	0.09371006946615058	0.4043751964775152	0.30870970414130683	0.07502588361421617	0.459148441175118	0.15824674111036263	-0.05266076182267588	0.6861676035991058	0.06036153605196083	0.7939878452473009	0.6022965062643695	0.040636362615418226	0.42952112775357326	0.5729953048554342	0.019039897867680025	0.026647253629542726	0.5570735595521711	0.12960858858338653	0.11052869318046553	0.35560929814823394	0.07758027070435118	0.10588607015371565	0.3780386415926511	0.011420963182753057	-0.017770016257025456	0.5858033321787925	0.21460031649915026	1.3964130717419927	0.6539762650286904	0.2514561021181573	1.6419130366247403	0.6551467366543708	0.2580545779120549	1.5235291621071965	0.5934648903646642	0.3612780771612721	1.280178861024563	0.6825308388871272	0.4211234249848752	1.0262705410681052	0.6384242184221124	0.36227268459443773	0.8178739084406283	0.5281058980294013	0.2715072179670797	0.7328916561227148	0.48077380416141874	0.28645837985625355	0.6907042813834711	0.4857514567072001	0.32409785943103686	0.6646277491067566	0.5180117323500217	0.05833348067980364	1.303015524819596	0.5759298729846485	0.03547239946626294	1.0762300595632799	0.5015850912822118	0.13954955454662266	0.8902853741688189	0.38047540732851437	0.23857386961011734	0.8385891200189429	0.3725209523126667	0.22871368604005432	0.8043553124176787	0.33378111893714724	0.18970295505264637	0.7719518773396138	0.3249144243916967	
303	5.224137931034483	0.2925685408991711	0.80168723872932	0.6551556751323507	0.2595996284372538	0.4419306086284393	0.6207950141644686	0.20676455172114117	0.05391129621494535	0.5931775601845547	0.26433227089971933	0.09375919847926306	0.4046488704307333	0.3076264022354078	0.07348873898955187	0.4621914622252534	0.15858516331541	-0.051573696543358694	0.6853207753639494	0.06165746695733561	0.7969457812525751	0.6003507216898638	0.039825438160218656	0.43143889432600807	0.5732760762981027	0.018934545830882624	0.026804826063759314	0.5569179069118783	0.12768128315593652	0.11031375386759978	0.3582471186660155	0.075364992490776	0.10424652810664009	0.38060109023370636	0.011403922398695579	-0.017474269531912903	0.5857634066279974	0.21452954473306063	1.3976023238410995	0.6539882218088027	0.2514610960843651	1.6418893934294916	0.6551604810537307	0.2586096532120925	1.5233888644621245	0.5946610418728357	0.3612242815211165	1.2802685931149194	0.6821465813629093	0.41633866711207673	1.026362606423	0.6296751650622159	0.34402078733929614	0.8186942976906988	0.5243778256432347	0.2502938513593199	0.7411903613065246	0.473652153235528	0.2595203044350549	0.6999638765901173	0.4787042859936519	0.29279678061777437	0.6727137148966603	0.5079578305498094	0.05883481800463762	1.3026065559492075	0.5789048737665493	0.03942825325002145	1.0754868658207275	0.5024158804896259	0.15977168984267537	0.8932983602239294	0.3825253528845869	0.2588623643296606	0.8453256601532627	0.3842071242891248	0.25047055592899997	0.8048439574555687	0.34888844351598286	0.21034410595201697	0.7716871411994731	0.34539569551530647	
304	5.241379310344827	0.29250904988614074	0.8056517504205211	0.6553502693321673	0.2594317312474469	0.4408208208232247	0.6225434475315017	0.2064836775652542	0.05264720582658869	0.5941327632386744	0.2632033352309876	0.09373507028393704	0.4048659936625765	0.30718945807897324	0.07280877084118503	0.463873955982899	0.15891581886657358	-0.050472131945417276	0.6844353105087438	0.06266537925334383	0.7999523781812015	0.5986817520863356	0.03908104836884216	0.4332706943370617	0.5734007382800318	0.01886533896195569	0.02692922228866315	0.5568019061934236	0.12569984871942394	0.11002794956427968	0.3610089978683533	0.07283439611825207	0.1023265608956892	0.38360284296288033	0.011447309739783588	-0.017420449151375687	0.5858540544506876	0.21461303131991044	1.3982861945968055	0.6542693487467965	0.2514881112592299	1.6418788776435096	0.6551725779464431	0.2596384777764902	1.523645454796073	0.5947801772480549	0.360587765905656	1.280351302325434	0.6817513399613037	0.4099355648467735	1.026192722215414	0.62363175451995	0.3284961592054164	0.821851868396761	0.5199194783069867	0.2337863815288082	0.7537072489812404	0.46513550165720774	0.2387628267114805	0.7123956029918086	0.4697667990167513	0.266087378683859	0.6848365314384731	0.4958383223208068	0.05925177438093273	1.3024212911759008	0.5822427032314434	0.04356126951433877	1.0746792055063144	0.504045321057994	0.17781109549358737	0.8966785389514464	0.3846286062348014	0.27573509463740575	0.8506315108749344	0.39408112094738423	0.26768081193176724	0.8052135591301229	0.3664280062521001	0.22434012512533202	0.7692271252508495	0.3709464489358518	
305	5.258620689655173	0.2922708711859608	0.8093273172993581	0.6558680841092961	0.2593558335365199	0.43953382835246346	0.6240639196222518	0.20633115903706678	0.05147924611806605	0.5950500813998487	0.2619760937364123	0.09370914327871485	0.4048844212713377	0.30723914195250324	0.07274405133087121	0.4641900587277242	0.15923041957128348	-0.04921125846906534	0.6835531150828185	0.063377971344114	0.8027296256072082	0.5973730210582086	0.03841674727484861	0.4349118714120673	0.573364896818795	0.01883706033428248	0.027043390213614377	0.5567248430549938	0.12389258955205193	0.10958178442720817	0.36339654884660283	0.06982721127016059	0.0998511229747622	0.3870964399396555	0.011531894770432247	-0.017600774564158976	0.5860375532934375	0.2146884442428344	1.3985030118224033	0.6545820624073327	0.2515203988616179	1.641862795970645	0.6551725290836837	0.2611161144386072	1.5243669418037322	0.5936618890787	0.3593353281744154	1.2803917903918545	0.6815140345297186	0.4029126044016839	1.0260011482306493	0.6205830830549203	0.3169831125211444	0.8279896388103001	0.5136708045301306	0.2226898188130411	0.7689253207197622	0.45600029833741607	0.22360984631938707	0.7262531885021047	0.4608185040651448	0.24536259888460815	0.6995682730195332	0.4834777097508541	0.059502804546947535	1.3026281781072913	0.585118172809516	0.04783683420831981	1.0739540305207391	0.5057796383903046	0.1928567508861973	0.9002874955880044	0.38699515842325755	0.2881686375782182	0.8531683028951969	0.40272243202848745	0.2787505808682016	0.8046808060189986	0.3859457129674584	0.23190099204282874	0.7651642556623454	0.3985323783255165	
306	5.275862068965517	0.29197827580279206	0.8126028235174569	0.6563892012323163	0.2594249858027285	0.438227618695726	0.6252068495072631	0.2063531284780563	0.050616417304108444	0.5958645454915478	0.26093856333764875	0.09369443551451023	0.40483086809922075	0.3074917672708334	0.07273998449790231	0.4638052579242013	0.15951168669024854	-0.04782438729943653	0.6828540639023147	0.06387601145763058	0.8051317121988972	0.5963626331313896	0.03784668304593191	0.4364214653619256	0.5731778884943352	0.018845529947714112	0.02714173375465631	0.556682069601558	0.12247384270289924	0.10897199510021097	0.3650171470995729	0.06658211499966711	0.09690255156309888	0.3907297793499446	0.011623706730588122	-0.01793997653697863	0.5862360899372148	0.21493758998279994	1.398510878858283	0.6544621154924404	0.2515498633990018	1.6418425461685102	0.6551629411633443	0.2628847299217599	1.525560456084759	0.5915322828600154	0.3576087566273874	1.280375576976201	0.6815149926655178	0.3963966636110394	1.0262970831596891	0.6196615593823043	0.3095628569920207	0.8369866585620023	0.5056712887114313	0.2167794400519497	0.7845723097564298	0.4479167996307637	0.21240145658254805	0.7392678871264343	0.4546281412794427	0.23039884016174567	0.7145532688271424	0.4730901713813319	0.059605813460905196	1.3033922058075114	0.5868494532893445	0.05161145652320155	1.0735375896444606	0.507385003915922	0.20473990482244955	0.9036401224707443	0.39024905344963146	0.2954838115597239	0.8527397488290263	0.4105694723685426	0.2831493044992065	0.8027263391935499	0.4066769106226797	0.23403752156711552	0.7605933515720524	0.4251175233309227	
